<?xml version="1.0" encoding="utf-8"?>
<!-- Generator: Adobe Illustrator 18.1.1, SVG Export Plug-In . SVG Version: 6.00 Build 0)  -->
<svg version="1.1" id="Слой_1" xmlns="http://www.w3.org/2000/svg" xmlns:xlink="http://www.w3.org/1999/xlink" x="0px" y="0px"
	 viewBox="0 0 12.2 8.6" enable-background="new 0 0 12.2 8.6" xml:space="preserve">
<path fill-rule="evenodd" clip-rule="evenodd" fill="#C69C6D" d="M12,8.6H0.2H0V0h0.2H12h0.2v0.2v7.4v1H12z M12,0.2H0.2v8.2H12V0.2z
	 M3.6,1.9v3.6v0.2H3.4H1.2H1V5.5V1.9V1.7h2.6V1.9z M2.2,3.4V1.9h-1v3.6h1V3.4z M3.4,1.9h-1v1.2h1V1.9z M3.4,3.4h-1v2.2h1V3.4z
	 M7.2,1.9v3.6v0.2H7H4.8H4.6V5.5V1.9V1.7h2.6V1.9z M5.8,1.9h-1v3.6h1V3.4V1.9z M7,1.9H6v1.2h1V1.9z M7,3.4H6v2.2h1V3.4z"/>
</svg>
