<?xml version="1.0" encoding="utf-8"?>
<!-- Generator: Adobe Illustrator 18.1.1, SVG Export Plug-In . SVG Version: 6.00 Build 0)  -->
<svg version="1.1" id="Слой_1" xmlns="http://www.w3.org/2000/svg" xmlns:xlink="http://www.w3.org/1999/xlink" x="0px" y="0px"
	 viewBox="0 0 15.1 7.5" enable-background="new 0 0 15.1 7.5" xml:space="preserve">
<path fill-rule="evenodd" clip-rule="evenodd" fill="none" d="M14.9,7.5h-0.2h-0.2v-1H0.7v0.7v0.2H0.5H0.2H0V0.3V0.1h0.2h0.2h0.2
	v1.2h1V1.1h0.2v0.2h1.7V1.1h0.2v0.2h1.7V1.1h0.2v0.2h1.7V1.1h0.2v0.2h1.7V1.1h0.2v0.2h1.7V1.1h0.2v0.2h1.7V1.1h0.2v0.2h1v-1V0.1h0.2
	h0.2h0.2v7.2v0.2H14.9z M0.5,6.6V6.3V6.1V5.9V2V1.8V1.5V1.3v-1H0.2v7h0.2V6.6z M1.7,1.5h-1v0.2h1V1.5z M1.7,2h-1v1.2h1V2z M1.7,3.5
	h-1v2.4h1V3.5z M1.7,6.1h-1v0.2h1V6.1z M3.6,1.5H1.9v0.2h1.7V1.5z M3.6,2H1.9v1.2h1.7V2z M3.6,3.5H1.9v2.4h1.7V3.5z M3.6,6.1H1.9
	v0.2h1.7V6.1z M5.5,1.5H3.8v0.2h1.7V1.5z M5.5,2H3.8v1.2h1.7V2z M5.5,3.5H3.8v2.4h1.7V3.5z M5.5,6.1H3.8v0.2h1.7V6.1z M7.4,1.5H5.8
	v0.2h1.7V1.5z M7.4,2H5.8v1.2h1.7V2z M7.4,3.5H5.8v2.4h1.7V3.5z M7.4,6.1H5.8v0.2h1.7V6.1z M9.4,1.5H7.7v0.2h1.7V1.5z M9.4,2H7.7
	v1.2h1.7V2z M9.4,3.5H7.7v2.4h1.7V3.5z M9.4,6.1H7.7v0.2h1.7V6.1z M11.3,1.5H9.6v0.2h1.7V1.5z M11.3,2H9.6v1.2h1.7V2z M11.3,3.5H9.6
	v2.4h1.7V3.5z M11.3,6.1H9.6v0.2h1.7V6.1z M11.5,6.3h1.7V6.1h-1.7V6.3z M11.5,5.9h1.7V3.5h-1.7V5.9z M11.5,3.2h1.7V2h-1.7V3.2z
	 M11.5,1.5v0.2h1.7V1.5H11.5z M14.4,1.5h-1v0.2h1V1.5z M14.4,2h-1v1.2h1V2z M14.4,3.5h-1v2.4h1V3.5z M14.4,6.1h-1v0.2h1V6.1z
	 M14.9,0.3h-0.2v1v0.2v0.2V2v3.8v0.2v0.2v0.2v0.7h0.2V0.3z"/>
</svg>
