<?xml version="1.0" encoding="utf-8"?>
<!-- Generator: Adobe Illustrator 18.1.1, SVG Export Plug-In . SVG Version: 6.00 Build 0)  -->
<svg version="1.1" id="Слой_1" xmlns="http://www.w3.org/2000/svg" xmlns:xlink="http://www.w3.org/1999/xlink" x="0px" y="0px"
	 viewBox="0 0 6 10" enable-background="new 0 0 6 10" xml:space="preserve">
<g>
	<path fill-rule="evenodd" clip-rule="evenodd" fill="none" d="M5.5,9.9h-5H0.2V9.7v-7h0C0.3,1.3,1.5,0.1,3,0.1s2.7,1.2,2.8,2.6h0v7
		v0.2H5.5z M3,0.3c-1.4,0-2.5,1.1-2.5,2.5c0,0,0,0.1,0,0.1h0v6.7h5V3h0c0,0,0-0.1,0-0.1C5.5,1.4,4.4,0.3,3,0.3z"/>
	<path fill-rule="evenodd" clip-rule="evenodd" fill="none" d="M3.8,3.7C3.8,3.3,3.4,3,3,3S2.2,3.3,2.2,3.7H1.9c0.1-0.5,0.5-1,1.1-1
		c0.6,0,1,0.4,1.1,1H3.8z"/>
	<path fill-rule="evenodd" clip-rule="evenodd" fill="none" d="M2.2,9.7H1.9v-6h0.2V9.7z"/>
	<path fill-rule="evenodd" clip-rule="evenodd" fill="none" d="M4.1,9.7H3.8v-6h0.2V9.7z"/>
	<path fill-rule="evenodd" clip-rule="evenodd" fill="none" d="M0.2,4.4V4.2h5.3v0.2H0.2z"/>
	<path fill-rule="evenodd" clip-rule="evenodd" fill="none" d="M0.2,6.8V6.6h5.3v0.2H0.2z"/>
</g>
</svg>
