<?xml version="1.0" encoding="utf-8"?>
<!-- Generator: Adobe Illustrator 18.1.1, SVG Export Plug-In . SVG Version: 6.00 Build 0)  -->
<svg version="1.1" id="Слой_1" xmlns="http://www.w3.org/2000/svg" xmlns:xlink="http://www.w3.org/1999/xlink" x="0px" y="0px"
	 viewBox="0 0 15.1 7" enable-background="new 0 0 15.1 7" xml:space="preserve">
<path fill-rule="evenodd" clip-rule="evenodd" fill="none" d="M15.1,6.7V7h-0.2h-0.2h-4.6H9.8H5.3H5H0.5H0.2H0V6.7h0.2V4.8H0V4.6
	h0.2h0.2h2.2V2.4H0.5H0.2H0V2.2h0.2V0.2H0V0h0.2h0.2H5h0.2h4.6h0.2h4.6h0.2h0.2v0.2h-0.2v1.9h0.2v0.2h-0.2h-0.2h-2.2v2.2h2.2h0.2
	h0.2v0.2h-0.2v1.9H15.1z M9.8,6.7V4.8H7.7H7.4H5.3v1.9H9.8z M0.5,4.8v1.9H5V4.8H2.9H2.6H0.5z M5,0.2H0.5v1.9H5V0.2z M5,2.4H2.9v2.2
	H5h0.2h2.2V2.4H5.3H5z M9.8,0.2H5.3v1.9h4.6V0.2z M9.8,2.4H7.7v2.2h2.2h0.2h2.2V2.4h-2.2H9.8z M14.6,2.2V0.2h-4.6v1.9H14.6z
	 M14.6,4.8h-2.2h-0.2h-2.2v1.9h4.6V4.8z"/>
</svg>
