<?xml version="1.0" encoding="utf-8"?>
<!-- Generator: Adobe Illustrator 18.1.1, SVG Export Plug-In . SVG Version: 6.00 Build 0)  -->
<svg version="1.1" id="Слой_1" xmlns="http://www.w3.org/2000/svg" xmlns:xlink="http://www.w3.org/1999/xlink" x="0px" y="0px"
	 viewBox="0 0 11 4" enable-background="new 0 0 11 4" xml:space="preserve">
<g>
	<path fill-rule="evenodd" clip-rule="evenodd" fill="none" d="M10.1,3L10.1,3v1H9.8V3.8V3V2.8h-1H8.2H7.9H6.2H6V3v0.7V4H5.8V3.8v-1
		H4.1H3.8V2.6v-1H2.2H1.9V1.4v-1H0V0.2h1.9h0.5h1.7h0.7h1.7v0.2H6.2v1h0.5h1.7v0.2H8.2v1h0.7h1.4v0.2h-0.2V3z M6,0.4H4.8H4.1H2.4
		H2.2v1h1.7h0.5H6V0.4z M7.9,1.6H6.7H6.2H6H4.3H4.1v1H6h0.2h1.7V1.6z"/>
	<path fill-rule="evenodd" clip-rule="evenodd" fill="none" d="M5.8,3.8V4H0V3.8H5.8z"/>
	<path fill-rule="evenodd" clip-rule="evenodd" fill="none" d="M10.3,3.8V4H4.6V3.8H10.3z"/>
</g>
</svg>
